<?xml version="1.0" encoding="utf-8"?>
<!-- Generator: Adobe Illustrator 19.2.0, SVG Export Plug-In . SVG Version: 6.00 Build 0)  -->
<svg version="1.1" id="Layer_1" xmlns="http://www.w3.org/2000/svg" xmlns:xlink="http://www.w3.org/1999/xlink" x="0px" y="0px"
	 viewBox="0 0 512 731.9" style="enable-background:new 0 0 512 731.9;" xml:space="preserve">
<style type="text/css">
	.st0{fill:#F9F7F7;}
	.st1{fill:none;}
	.st2{font-family:'MyriadPro-Regular';}
	.st3{font-size:175px;}
</style>
<g>
	<g>
		<path class="st0" d="M512,204c-0.4-13.5-11.3-24.3-24.8-24.8h-3.5c-8.3,0-31.3,0.8-59.7,6.3c-5.1-38.4-15.4-65.7-16.2-67.8
			c-2.5-6.5-7.6-11.7-14.1-14.4c-3.1-1.3-6.5-1.9-9.8-1.9c-3.5,0-7,0.7-10.3,2.2c-1.9,0.8-22.6,10.1-48.4,28.3
			c-22.6-43-48.8-70.7-50.7-72.7c-4.8-5.1-11.5-7.9-18.5-7.9s-13.7,2.8-18.5,7.9c-1.9,2-28.1,29.8-50.7,72.8
			c-25.7-18.1-46.4-27.6-48.3-28.4c-3.3-1.4-6.8-2.2-10.3-2.2c-3.3,0-6.7,0.6-9.8,1.9c-6.5,2.7-11.5,7.9-14.1,14.4
			c-0.8,2.2-11.1,29.4-16.2,67.8c-28.4-5.5-51.4-6.3-59.7-6.3h-3.6C11.4,179.7,0.5,190.6,0.1,204c-0.2,4.8-2.9,118.3,67.7,189
			c64.5,64.5,165.8,67.8,185.4,67.8h2.6c0.1,0,0.1,0,0.2,0s0.1,0,0.2,0h2.6c19.6,0,120.9-3.3,185.4-67.8
			C514.8,322.4,512.1,208.8,512,204z M383.8,127c0,0,10.3,26.9,14.9,64.6c-14.8,4.2-30.2,9.7-45.5,17.2c-4-19.1-9.9-36.9-16.9-53.2
			C362.5,136.5,383.8,127,383.8,127z M128.2,127c0,0,21.4,9.5,47.5,28.5c-7,16.4-13,34.3-17,53.4c-15.3-7.5-30.7-13.1-45.5-17.3
			C117.9,153.9,128.2,127,128.2,127z M85.9,374.9c-63.6-63.6-60.3-170.1-60.3-170.1s1,0,2.8,0c13.4,0,73.2,2.1,126.2,30.7
			c-0.6,6.7-1,13.6-1,20.5c0,78.8,42.8,145.4,67.3,177.1C184.2,428.7,126.4,415.4,85.9,374.9z M256.6,434.6c-0.5-0.2-1-0.3-1.6-0.5
			c-9-9.8-75.8-85.8-75.8-178c0-99,76.8-179.2,76.8-179.2S332.8,157,332.8,256C332.8,351,262.3,428.5,256.6,434.6z M426.1,374.9
			c-40.5,40.5-98.3,53.8-135,58.2c24.5-31.7,67.3-98.3,67.3-177.1c0-7-0.4-13.9-1-20.6c53-28.5,112.8-30.6,126.2-30.6
			c1.8,0,2.8,0,2.8,0S489.7,311.3,426.1,374.9z"/>
	</g>
</g>
<rect x="6.6" y="549.9" class="st1" width="538.8" height="168"/>
<text transform="matrix(1 0 0 1 6.6073 674.1381)" class="st0 st2 st3">ananta</text>
</svg>
